<svg width="94" height="93" viewBox="0 0 94 93" fill="none" xmlns="http://www.w3.org/2000/svg">
<path d="M91.1233 11.5217L83.9417 2.84167C82.5467 1.085 80.4283 0 78 0H16C13.5717 0 11.4533 1.085 10.0067 2.84167L2.87667 11.5217C1.37833 13.2783 0.5 15.6033 0.5 18.0833V82.6667C0.5 88.35 5.15 93 10.8333 93H83.1667C88.85 93 93.5 88.35 93.5 82.6667V18.0833C93.5 15.6033 92.6217 13.2783 91.1233 11.5217ZM17.24 10.3333H76.76L80.945 15.345H13.1067L17.24 10.3333ZM10.8333 82.6667V25.8333H83.1667V82.6667H10.8333ZM54.4917 36.1667H39.5083V51.6667H26.3333L47 72.3333L67.6667 51.6667H54.4917V36.1667Z" fill="#EEEEEE"/>
</svg>
